<svg width="110" height="75" viewBox="0 0 110 75" fill="none" xmlns="http://www.w3.org/2000/svg">
<path d="M53.9922 37.4105C53.9922 43.7105 53.3089 49.1939 51.9422 53.8605C50.6089 58.4939 48.7422 62.3272 46.3422 65.3605C43.9755 68.3939 41.1589 70.6605 37.8922 72.1605C34.6589 73.6272 31.1589 74.3605 27.3922 74.3605C23.6255 74.3605 20.1255 73.6272 16.8922 72.1605C13.6922 70.6605 10.9089 68.3939 8.54219 65.3605C6.17552 62.3272 4.32552 58.4939 2.99219 53.8605C1.65885 49.1939 0.992188 43.7105 0.992188 37.4105C0.992188 31.0772 1.65885 25.5939 2.99219 20.9605C4.32552 16.3272 6.17552 12.4939 8.54219 9.46054C10.9089 6.42721 13.6922 4.17721 16.8922 2.71054C20.1255 1.21055 23.6255 0.460546 27.3922 0.460546C31.1589 0.460546 34.6589 1.21055 37.8922 2.71054C41.1589 4.17721 43.9755 6.42721 46.3422 9.46054C48.7422 12.4939 50.6089 16.3272 51.9422 20.9605C53.3089 25.5939 53.9922 31.0772 53.9922 37.4105ZM41.2422 37.4105C41.2422 32.1772 40.8589 27.8439 40.0922 24.4105C39.3255 20.9772 38.2922 18.2439 36.9922 16.2105C35.7255 14.1772 34.2589 12.7605 32.5922 11.9605C30.9255 11.1272 29.1922 10.7105 27.3922 10.7105C25.6255 10.7105 23.9089 11.1272 22.2422 11.9605C20.6089 12.7605 19.1589 14.1772 17.8922 16.2105C16.6255 18.2439 15.6089 20.9772 14.8422 24.4105C14.1089 27.8439 13.7422 32.1772 13.7422 37.4105C13.7422 42.6439 14.1089 46.9772 14.8422 50.4105C15.6089 53.8439 16.6255 56.5772 17.8922 58.6105C19.1589 60.6439 20.6089 62.0772 22.2422 62.9105C23.9089 63.7105 25.6255 64.1105 27.3922 64.1105C29.1922 64.1105 30.9255 63.7105 32.5922 62.9105C34.2589 62.0772 35.7255 60.6439 36.9922 58.6105C38.2922 56.5772 39.3255 53.8439 40.0922 50.4105C40.8589 46.9772 41.2422 42.6439 41.2422 37.4105ZM105.55 62.0605C106.883 62.0605 107.933 62.4439 108.7 63.2105C109.5 63.9439 109.9 64.9272 109.9 66.1605V73.5605H60.3V69.4605C60.3 68.6272 60.4667 67.7605 60.8 66.8605C61.1667 65.9272 61.7333 65.0939 62.5 64.3605L84.45 42.3605C86.2833 40.4939 87.9167 38.7105 89.35 37.0105C90.8167 35.3105 92.0333 33.6272 93 31.9605C93.9667 30.2939 94.7 28.6105 95.2 26.9105C95.7333 25.1772 96 23.3605 96 21.4605C96 19.7272 95.75 18.2105 95.25 16.9105C94.75 15.5772 94.0333 14.4605 93.1 13.5605C92.2 12.6605 91.1 11.9939 89.8 11.5605C88.5333 11.0939 87.1 10.8605 85.5 10.8605C84.0333 10.8605 82.6667 11.0772 81.4 11.5105C80.1667 11.9105 79.0667 12.4939 78.1 13.2605C77.1333 13.9939 76.3167 14.8605 75.65 15.8605C74.9833 16.8605 74.4833 17.9605 74.15 19.1605C73.5833 20.6939 72.85 21.7105 71.95 22.2105C71.05 22.7105 69.75 22.8272 68.05 22.5605L61.55 21.4105C62.05 17.9439 63.0167 14.9105 64.45 12.3105C65.8833 9.67721 67.6667 7.49388 69.8 5.76054C71.9667 3.99388 74.4333 2.67721 77.2 1.81054C80 0.910545 83 0.460546 86.2 0.460546C89.5333 0.460546 92.5833 0.960546 95.35 1.96054C98.1167 2.92721 100.483 4.31054 102.45 6.11054C104.417 7.91054 105.95 10.0772 107.05 12.6105C108.15 15.1439 108.7 17.9605 108.7 21.0605C108.7 23.7272 108.3 26.1939 107.5 28.4605C106.733 30.7272 105.683 32.8939 104.35 34.9605C103.05 37.0272 101.517 39.0272 99.75 40.9605C97.9833 42.8939 96.1333 44.8605 94.2 46.8605L77.9 63.5105C79.4667 63.0439 81.0167 62.6939 82.55 62.4605C84.1167 62.1939 85.6 62.0605 87 62.0605H105.55Z" fill="#101010" fill-opacity="0.08"/>
</svg>
