<svg width="110" height="75" viewBox="0 0 110 75" fill="none" xmlns="http://www.w3.org/2000/svg">
<path d="M53.9922 37.4105C53.9922 43.7105 53.3089 49.1939 51.9422 53.8605C50.6089 58.4939 48.7422 62.3272 46.3422 65.3605C43.9755 68.3939 41.1589 70.6605 37.8922 72.1605C34.6589 73.6272 31.1589 74.3605 27.3922 74.3605C23.6255 74.3605 20.1255 73.6272 16.8922 72.1605C13.6922 70.6605 10.9089 68.3939 8.54219 65.3605C6.17552 62.3272 4.32552 58.4939 2.99219 53.8605C1.65885 49.1939 0.992188 43.7105 0.992188 37.4105C0.992188 31.0772 1.65885 25.5939 2.99219 20.9605C4.32552 16.3272 6.17552 12.4939 8.54219 9.46054C10.9089 6.42721 13.6922 4.17721 16.8922 2.71054C20.1255 1.21055 23.6255 0.460546 27.3922 0.460546C31.1589 0.460546 34.6589 1.21055 37.8922 2.71054C41.1589 4.17721 43.9755 6.42721 46.3422 9.46054C48.7422 12.4939 50.6089 16.3272 51.9422 20.9605C53.3089 25.5939 53.9922 31.0772 53.9922 37.4105ZM41.2422 37.4105C41.2422 32.1772 40.8589 27.8439 40.0922 24.4105C39.3255 20.9772 38.2922 18.2439 36.9922 16.2105C35.7255 14.1772 34.2589 12.7605 32.5922 11.9605C30.9255 11.1272 29.1922 10.7105 27.3922 10.7105C25.6255 10.7105 23.9089 11.1272 22.2422 11.9605C20.6089 12.7605 19.1589 14.1772 17.8922 16.2105C16.6255 18.2439 15.6089 20.9772 14.8422 24.4105C14.1089 27.8439 13.7422 32.1772 13.7422 37.4105C13.7422 42.6439 14.1089 46.9772 14.8422 50.4105C15.6089 53.8439 16.6255 56.5772 17.8922 58.6105C19.1589 60.6439 20.6089 62.0772 22.2422 62.9105C23.9089 63.7105 25.6255 64.1105 27.3922 64.1105C29.1922 64.1105 30.9255 63.7105 32.5922 62.9105C34.2589 62.0772 35.7255 60.6439 36.9922 58.6105C38.2922 56.5772 39.3255 53.8439 40.0922 50.4105C40.8589 46.9772 41.2422 42.6439 41.2422 37.4105ZM61.9 21.4105C62.4 17.9439 63.3667 14.9105 64.8 12.3105C66.2333 9.67721 68.0167 7.49388 70.15 5.76054C72.3167 3.99388 74.7833 2.67721 77.55 1.81054C80.35 0.910545 83.35 0.460546 86.55 0.460546C89.8833 0.460546 92.8833 0.943878 95.55 1.91054C98.25 2.84388 100.55 4.16054 102.45 5.86054C104.35 7.52721 105.8 9.49388 106.8 11.7605C107.833 14.0272 108.35 16.4772 108.35 19.1105C108.35 21.4105 108.083 23.4439 107.55 25.2105C107.05 26.9439 106.317 28.4605 105.35 29.7605C104.383 31.0605 103.183 32.1605 101.75 33.0605C100.317 33.9605 98.7 34.7105 96.9 35.3105C101.233 36.6772 104.467 38.7605 106.6 41.5605C108.733 44.3605 109.8 47.8772 109.8 52.1105C109.8 55.7105 109.133 58.8939 107.8 61.6605C106.467 64.4272 104.667 66.7605 102.4 68.6605C100.133 70.5272 97.5 71.9439 94.5 72.9105C91.5333 73.8772 88.3833 74.3605 85.05 74.3605C81.4167 74.3605 78.25 73.9439 75.55 73.1105C72.85 72.2772 70.5 71.0439 68.5 69.4105C66.5 67.7772 64.8 65.7772 63.4 63.4105C62 61.0439 60.8 58.3105 59.8 55.2105L65.25 52.9605C66.6833 52.3605 68.0167 52.2105 69.25 52.5105C70.5167 52.7772 71.4333 53.4439 72 54.5105C72.6 55.6772 73.25 56.8272 73.95 57.9605C74.6833 59.0939 75.55 60.1105 76.55 61.0105C77.55 61.8772 78.7167 62.5939 80.05 63.1605C81.4167 63.6939 83.0333 63.9605 84.9 63.9605C87 63.9605 88.8333 63.6272 90.4 62.9605C91.9667 62.2605 93.2667 61.3605 94.3 60.2605C95.3667 59.1605 96.15 57.9439 96.65 56.6105C97.1833 55.2439 97.45 53.8772 97.45 52.5105C97.45 50.7772 97.2667 49.2105 96.9 47.8105C96.5333 46.3772 95.7667 45.1605 94.6 44.1605C93.4333 43.1605 91.75 42.3772 89.55 41.8105C87.3833 41.2439 84.4667 40.9605 80.8 40.9605V32.1605C83.8333 32.1272 86.35 31.8439 88.35 31.3105C90.35 30.7772 91.9333 30.0439 93.1 29.1105C94.3 28.1439 95.1333 26.9939 95.6 25.6605C96.0667 24.3272 96.3 22.8605 96.3 21.2605C96.3 17.8605 95.35 15.2772 93.45 13.5105C91.55 11.7439 89.0167 10.8605 85.85 10.8605C84.3833 10.8605 83.0333 11.0772 81.8 11.5105C80.5667 11.9105 79.45 12.4939 78.45 13.2605C77.4833 13.9939 76.6667 14.8605 76 15.8605C75.3333 16.8605 74.8333 17.9605 74.5 19.1605C73.9333 20.6939 73.1833 21.7105 72.25 22.2105C71.35 22.7105 70.0667 22.8272 68.4 22.5605L61.9 21.4105Z" fill="#101010" fill-opacity="0.08"/>
</svg>
