<svg width="112" height="75" viewBox="0 0 112 75" fill="none" xmlns="http://www.w3.org/2000/svg">
<path d="M53.9922 37.4105C53.9922 43.7105 53.3089 49.1939 51.9422 53.8605C50.6089 58.4939 48.7422 62.3272 46.3422 65.3605C43.9755 68.3939 41.1589 70.6605 37.8922 72.1605C34.6589 73.6272 31.1589 74.3605 27.3922 74.3605C23.6255 74.3605 20.1255 73.6272 16.8922 72.1605C13.6922 70.6605 10.9089 68.3939 8.54219 65.3605C6.17552 62.3272 4.32552 58.4939 2.99219 53.8605C1.65885 49.1939 0.992188 43.7105 0.992188 37.4105C0.992188 31.0772 1.65885 25.5939 2.99219 20.9605C4.32552 16.3272 6.17552 12.4939 8.54219 9.46054C10.9089 6.42721 13.6922 4.17721 16.8922 2.71054C20.1255 1.21055 23.6255 0.460546 27.3922 0.460546C31.1589 0.460546 34.6589 1.21055 37.8922 2.71054C41.1589 4.17721 43.9755 6.42721 46.3422 9.46054C48.7422 12.4939 50.6089 16.3272 51.9422 20.9605C53.3089 25.5939 53.9922 31.0772 53.9922 37.4105ZM41.2422 37.4105C41.2422 32.1772 40.8589 27.8439 40.0922 24.4105C39.3255 20.9772 38.2922 18.2439 36.9922 16.2105C35.7255 14.1772 34.2589 12.7605 32.5922 11.9605C30.9255 11.1272 29.1922 10.7105 27.3922 10.7105C25.6255 10.7105 23.9089 11.1272 22.2422 11.9605C20.6089 12.7605 19.1589 14.1772 17.8922 16.2105C16.6255 18.2439 15.6089 20.9772 14.8422 24.4105C14.1089 27.8439 13.7422 32.1772 13.7422 37.4105C13.7422 42.6439 14.1089 46.9772 14.8422 50.4105C15.6089 53.8439 16.6255 56.5772 17.8922 58.6105C19.1589 60.6439 20.6089 62.0772 22.2422 62.9105C23.9089 63.7105 25.6255 64.1105 27.3922 64.1105C29.1922 64.1105 30.9255 63.7105 32.5922 62.9105C34.2589 62.0772 35.7255 60.6439 36.9922 58.6105C38.2922 56.5772 39.3255 53.8439 40.0922 50.4105C40.8589 46.9772 41.2422 42.6439 41.2422 37.4105ZM92.1 46.3105V22.6605C92.1 20.4272 92.25 17.9605 92.55 15.2605L70.1 46.3105H92.1ZM111.95 46.3105V53.4605C111.95 54.1272 111.733 54.7105 111.3 55.2105C110.867 55.6772 110.25 55.9105 109.45 55.9105H102.85V73.5605H92.1V55.9105H61.6C60.7667 55.9105 60.0333 55.6605 59.4 55.1605C58.7667 54.6272 58.3667 53.9772 58.2 53.2105L56.9 46.9605L91.15 1.21055H102.85V46.3105H111.95Z" fill="#101010" fill-opacity="0.08"/>
</svg>
