<svg width="48" height="55" viewBox="0 0 48 55" fill="none" xmlns="http://www.w3.org/2000/svg">
<path d="M12.7229 27.9195C12.7229 26.4657 11.7128 25.5972 9.93184 25.5972C9.2049 25.5972 8.71326 25.6679 8.45501 25.7368V30.4064C8.76109 30.4753 9.13604 30.5002 9.65063 30.5002C11.5502 30.5002 12.7229 29.5379 12.7229 27.9195Z" fill="#ED4C5C"/>
<path d="M23.7532 25.6431C22.9555 25.6431 22.439 25.7138 22.1329 25.7846V36.1301C22.439 36.2009 22.9306 36.2009 23.3764 36.2009C26.6132 36.2238 28.7251 34.4409 28.7251 30.6647C28.75 27.3801 26.8255 25.6431 23.7532 25.6431Z" fill="#ED4C5C"/>
<path d="M44.8861 19.5655H43.5891V13.3081C43.588 13.2684 43.5842 13.2287 43.5776 13.1895C43.5797 12.9378 43.4907 12.6939 43.327 12.5027L32.9146 0.611555L32.9069 0.603904C32.7747 0.460413 32.6061 0.35532 32.4191 0.299738L32.3617 0.280608C32.2822 0.260791 32.2007 0.250516 32.1187 0.25H6.52861C5.35977 0.25 4.41092 1.20076 4.41092 2.36769V19.5655H3.11391C1.44196 19.5655 0.0875549 20.9199 0.0875549 22.5919V38.332C0.0875549 40.002 1.44387 41.3584 3.11391 41.3584H4.41092V52.1343C4.41092 53.3012 5.35977 54.252 6.52861 54.252H41.4714C42.6383 54.252 43.5891 53.3012 43.5891 52.1343V41.3584H44.8861C46.558 41.3584 47.9124 40.002 47.9124 38.332V22.5919C47.9124 20.9199 46.5561 19.5655 44.8861 19.5655ZM6.52861 2.36769H31.059V13.2029C31.059 13.7883 31.5334 14.2608 32.1187 14.2608H41.4733V19.5655H6.52861V2.36769ZM32.5262 30.5461C32.5262 33.5725 31.4243 35.6615 29.8958 36.9508C28.2315 38.3339 25.6987 38.992 22.6016 38.992C20.7479 38.992 19.4356 38.8734 18.5422 38.7586V23.227C19.8564 23.0166 21.5686 22.8999 23.3764 22.8999C26.3778 22.8999 28.3253 23.4393 29.8499 24.589C31.4932 25.8076 32.5262 27.755 32.5262 30.5461ZM4.91022 38.8294V23.227C6.0121 23.0395 7.56163 22.8999 9.74244 22.8999C11.9481 22.8999 13.5206 23.3226 14.5747 24.1663C15.5828 24.964 16.2619 26.2782 16.2619 27.8258C16.2619 29.3754 15.7473 30.6877 14.8081 31.5791C13.5876 32.7288 11.7817 33.2453 9.66975 33.2453C9.20106 33.2453 8.77829 33.2224 8.45117 33.1746V38.8294H4.91022ZM41.4714 51.5604H6.52861V41.3584H41.4714V51.5604ZM44.5398 25.9492H38.4622V29.5628H44.14V32.4725H38.4622V38.8294H34.8754V23.0166H44.5398V25.9492Z" fill="#ED4C5C"/>
</svg>
