<svg width="47" height="55" viewBox="0 0 47 55" fill="none" xmlns="http://www.w3.org/2000/svg">
<g clip-path="url(#clip0_6_9)">
<path d="M44.0258 19.8309H42.7512V13.6894C42.7501 13.6504 42.7464 13.6115 42.7399 13.573C42.7417 13.3262 42.6535 13.0873 42.4918 12.9008L32.2608 1.22795L32.2533 1.22044C32.192 1.15434 32.1225 1.0963 32.0465 1.04771L31.9788 1.0064C31.9138 0.970309 31.8451 0.941351 31.7739 0.920032L31.7175 0.901257C31.6394 0.881807 31.5592 0.871722 31.4787 0.871216H6.32996C5.18128 0.871216 4.2488 1.80437 4.2488 2.94968V19.829H2.97416C1.33104 19.829 0 21.1583 0 22.7993V38.248C0 39.8871 1.33292 41.2183 2.97416 41.2183H4.2488V51.7928C4.2488 52.9381 5.18128 53.8712 6.32996 53.8712H40.67C41.8168 53.8712 42.7512 52.9381 42.7512 51.7928V41.2183H44.0258C45.6671 41.2183 47 39.889 47 38.248V22.7993C47 21.1602 45.669 19.8309 44.0258 19.8309ZM6.32996 2.94968H30.4372V13.5842C30.4372 14.1588 30.9034 14.6225 31.4787 14.6225H40.6719V19.829H6.32996V2.94968ZM21.9001 31.4286C19.3734 30.5274 17.7058 29.1305 17.7058 26.9244C17.7058 24.3352 19.8942 22.3769 23.4568 22.3769C25.1939 22.3769 26.4328 22.7148 27.3352 23.1411L26.5682 25.8879C25.5851 25.4098 24.5051 25.1637 23.4116 25.1688C21.9227 25.1688 21.2008 25.8654 21.2008 26.6315C21.2008 27.6003 22.0336 28.0265 24.0189 28.77C26.7035 29.7614 27.9424 31.1564 27.9424 33.2968C27.9424 35.8428 26.0042 38.0039 21.8324 38.0039C20.0953 38.0039 18.3826 37.5307 17.5254 37.0576L18.2247 34.2431C19.4053 34.8451 20.7082 35.1688 22.0336 35.1894C23.6128 35.1894 24.4475 34.5341 24.4475 33.5447C24.4475 32.5984 23.7275 32.0595 21.9001 31.4286ZM3.99124 30.3922C3.99124 25.2345 7.6892 22.375 12.2877 22.375C14.0699 22.375 15.4216 22.7336 16.0308 23.0284L15.3088 25.7528C14.3956 25.3698 13.4134 25.1781 12.423 25.1895C9.71772 25.1895 7.59896 26.8324 7.59896 30.2101C7.59896 33.2274 9.40188 35.1425 12.4456 35.1425C13.5059 35.1425 14.6339 34.9416 15.3314 34.6468L15.8296 37.3486C15.2205 37.6396 13.7766 38.002 11.9512 38.002C6.69656 38.0039 3.99124 34.7163 3.99124 30.3922ZM40.67 51.2332H6.32996V41.2202H40.67V51.2332ZM37.8914 37.7786H33.8776L29.0084 22.6003H32.774L34.6221 29.0197C35.1391 30.8428 35.6128 32.5552 35.9738 34.4459H36.0415C36.4259 32.6417 36.8844 30.854 37.4158 29.0873L39.3559 22.6022H43.0069L37.8914 37.7786Z" fill="#ED4C5C"/>
</g>
<defs>
<clipPath id="clip0_6_9">
<rect width="47" height="54" fill="white" transform="translate(0 0.871216)"/>
</clipPath>
</defs>
</svg>
