<svg width="80" height="81" viewBox="0 0 80 81" fill="none" xmlns="http://www.w3.org/2000/svg">
<path d="M48.75 55.5055H42.9609V36.5758C42.9609 36.2321 42.6797 35.9508 42.3359 35.9508H37.6484C37.3047 35.9508 37.0234 36.2321 37.0234 36.5758V55.5055H31.25C30.7265 55.5055 30.4375 56.1071 30.7578 56.5133L39.5078 67.5836C39.5663 67.6583 39.641 67.7187 39.7262 67.7603C39.8115 67.8018 39.9051 67.8234 40 67.8234C40.0948 67.8234 40.1885 67.8018 40.2737 67.7603C40.359 67.7187 40.4337 67.6583 40.4922 67.5836L49.2422 56.5133C49.5625 56.1071 49.2734 55.5055 48.75 55.5055V55.5055Z" fill="#ED4C5C"/>
<path d="M63.3906 28.9742C59.8125 19.5367 50.6953 12.8258 40.0156 12.8258C29.3359 12.8258 20.2187 19.5289 16.6406 28.9664C9.94531 30.7242 5 36.8258 5 44.0758C5 52.7086 11.9922 59.7008 20.6172 59.7008H23.75C24.0938 59.7008 24.375 59.4196 24.375 59.0758V54.3883C24.375 54.0446 24.0938 53.7633 23.75 53.7633H20.6172C17.9844 53.7633 15.5078 52.7164 13.6641 50.818C11.8281 48.9274 10.8516 46.3805 10.9375 43.7399C11.0078 41.6774 11.7109 39.7399 12.9844 38.1071C14.2891 36.443 16.1172 35.2321 18.1484 34.693L21.1094 33.9196L22.1953 31.0602C22.8672 29.2789 23.8047 27.6149 24.9844 26.1071C26.149 24.6126 27.5286 23.2989 29.0781 22.2086C32.2891 19.9508 36.0703 18.7555 40.0156 18.7555C43.9609 18.7555 47.7422 19.9508 50.9531 22.2086C52.5078 23.3024 53.8828 24.6149 55.0469 26.1071C56.2266 27.6149 57.1641 29.2867 57.8359 31.0602L58.9141 33.9117L61.8672 34.693C66.1016 35.8336 69.0625 39.6852 69.0625 44.0758C69.0625 46.6617 68.0547 49.0992 66.2266 50.9274C65.33 51.8291 64.2635 52.5441 63.0888 53.0309C61.914 53.5177 60.6544 53.7666 59.3828 53.7633H56.25C55.9062 53.7633 55.625 54.0446 55.625 54.3883V59.0758C55.625 59.4196 55.9062 59.7008 56.25 59.7008H59.3828C68.0078 59.7008 75 52.7086 75 44.0758C75 36.8336 70.0703 30.7399 63.3906 28.9742Z" fill="#ED4C5C"/>
</svg>
